<?xml version="1.0" encoding="UTF-8"?>
<svg id="Layer_1" xmlns="http://www.w3.org/2000/svg" viewBox="0 0 736 736">
  <defs>
    <style>
      .cls-1 {
        fill: #e31f1f;
      }

      .cls-2 {
        fill: #fff;
      }
    </style>
  </defs>
  <circle class="cls-1" cx="369" cy="368.09" r="325"/>
  <path class="cls-2" d="M521.82,545.97c-1.43.89-3.24-1.27-3.24-1.27l-89.49-89.49-24.79,24.8,56.13,56.13c1.17,1.16,1.71,2.71,1.62,4.23l.19-.15v64.75s.24.87-1.19,1.76c-1.42.9-3.24-1.27-3.24-1.27l-33.35-33.35-56.13-56.13-88.73,88.73s-1.81,2.16-3.24,1.27c-1.42-.89-1.19-1.76-1.19-1.76v-64.14c-.15-1.61.38-3.27,1.61-4.5l148.4-148.4c2.19-2.18,5.73-2.18,7.92,0l28.06,28.06c.2.2.38.41.53.63l59.59,59.59c1.13,1.12,1.67,2.61,1.63,4.08l.1-.08v64.74s.23.87-1.19,1.77Z"/>
  <path class="cls-2" d="M214.56,188.65c1.43-.89,3.24,1.27,3.24,1.27l89.49,89.49,24.79-24.8-56.13-56.13c-1.17-1.16-1.71-2.71-1.62-4.23l-.19.15v-64.75s-.24-.87,1.19-1.76c1.42-.9,3.24,1.27,3.24,1.27l33.35,33.35,56.13,56.13,88.73-88.73s1.81-2.16,3.24-1.27c1.42.89,1.19,1.76,1.19,1.76v64.14c.15,1.61-.38,3.27-1.61,4.5l-148.4,148.4c-2.19,2.18-5.73,2.18-7.92,0l-28.06-28.06c-.2-.2-.38-.41-.53-.63l-59.59-59.59c-1.13-1.12-1.67-2.61-1.63-4.08l-.1.08v-64.74s-.23-.87,1.19-1.77Z"/>
  <path class="cls-2" d="M548.99,214.11c.89,1.43-1.27,3.24-1.27,3.24l-89.49,89.49,24.8,24.79,56.13-56.13c1.16-1.17,2.71-1.71,4.23-1.62l-.15-.19h64.75s.87-.24,1.76,1.19c.9,1.42-1.27,3.24-1.27,3.24l-33.35,33.35-56.13,56.13,88.73,88.73s2.16,1.81,1.27,3.24c-.89,1.42-1.76,1.19-1.76,1.19h-64.14c-1.61.15-3.27-.38-4.5-1.61l-148.4-148.4c-2.18-2.19-2.18-5.73,0-7.92l28.06-28.06c.2-.2.41-.38.63-.53l59.59-59.59c1.12-1.13,2.61-1.67,4.08-1.63l-.08-.1h64.74s.87-.23,1.77,1.19Z"/>
  <path class="cls-2" d="M189.63,520.85c-.89-1.43,1.27-3.24,1.27-3.24l89.49-89.49-24.8-24.79-56.13,56.13c-1.16,1.17-2.71,1.71-4.23,1.62l.15.19h-64.75s-.87.24-1.76-1.19c-.9-1.42,1.27-3.24,1.27-3.24l33.35-33.35,56.13-56.13-88.73-88.73s-2.16-1.81-1.27-3.24c.89-1.42,1.76-1.19,1.76-1.19h64.14c1.61-.15,3.27.38,4.5,1.61l148.4,148.4c2.18,2.19,2.18,5.73,0,7.92l-28.06,28.06c-.2.2-.41.38-.63.53l-59.59,59.59c-1.12,1.13-2.61,1.67-4.08,1.63l.08.1h-64.74s-.87.23-1.77-1.19Z"/>
</svg>