<?xml version="1.0" encoding="utf-8"?>
<!-- Generator: Adobe Illustrator 26.0.3, SVG Export Plug-In . SVG Version: 6.00 Build 0)  -->
<svg version="1.1" id="artwork" xmlns="http://www.w3.org/2000/svg" xmlns:xlink="http://www.w3.org/1999/xlink" x="0px" y="0px"
	 viewBox="0 0 648 242.64" style="enable-background:new 0 0 648 242.64;" xml:space="preserve">
<style type="text/css">
	.st0{fill:#636569;}
	.st1{fill:#FFFFFF;}
	.st2{fill:#E02726;}
	.st3{fill:#B2282D;}
	.st4{fill:#636466;}
	.st5{fill:#4D4D4F;}
</style>
<path class="st1" d="M207.29,117.07h22.81v9.56h-22.81v18.51h-10.52V97.33h36.4v9.56h-25.89V117.07z M261.36,96.99l20.49,48.15h-11
	l-4.37-10.72h-20.22l-4.37,10.72h-10.72l20.49-48.15H261.36z M262.72,125.13l-6.35-15.5l-6.35,15.5H262.72z M318.76,126.77
	l-22.4-29.44h-9.7v47.81h10.38v-30.4l23.16,30.4h8.95V97.33h-10.38V126.77z M359.22,116.53c-8.26-2.12-10.31-3.14-10.31-6.28v-0.14
	c0-2.32,2.12-4.17,6.15-4.17c4.03,0,8.2,1.78,12.43,4.71l5.47-7.92c-4.85-3.89-10.79-6.08-17.76-6.08
	c-9.77,0-16.73,5.74-16.73,14.41v0.14c0,9.49,6.22,12.16,15.85,14.62c7.99,2.05,9.63,3.42,9.63,6.08v0.14c0,2.8-2.6,4.51-6.9,4.51
	c-5.46,0-9.97-2.25-14.27-5.8l-6.22,7.44c5.74,5.12,13.05,7.65,20.29,7.65c10.31,0,17.55-5.33,17.55-14.82v-0.14
	C374.39,122.54,368.92,119.05,359.22,116.53z M412.67,116.25h-19.4V97.33h-10.52v47.81h10.52v-19.19h19.4v19.19h10.52V97.33h-10.52
	V116.25z M459.05,96.99l20.49,48.15h-11l-4.37-10.72h-20.22l-4.37,10.72h-10.72l20.49-48.15H459.05z M460.41,125.13l-6.35-15.5
	l-6.35,15.5H460.41z M526.36,129.71L515.63,97.2h-9.01l-10.72,32.51l-9.91-32.38h-11.27l16.33,48.15h9.15l10.79-31.28l10.79,31.28
	h9.15l16.33-48.15h-11L526.36,129.71z M563.79,135.79v-10.04h22.54v-9.36h-22.54v-9.7h25.61v-9.36h-36.06v47.81h36.4v-9.36H563.79z"
	/>
<path class="st1" d="M79.39,91.7l-0.03-15.24c0.02-0.22,0.21-0.45,0.44-0.5c0.17-0.03,0.37-0.01,0.54,0.17l23.01,23.02l6.55-6.55
	L95.92,78.6l-0.01-0.01c-0.63-0.57-0.99-1.39-0.99-2.24c0-0.03,0.01-15.3,0.01-15.3c0.01-0.21,0.18-0.46,0.44-0.52
	c0.14-0.03,0.36-0.04,0.57,0.17l22.9,22.96l22.9-22.96c0.15-0.14,0.3-0.2,0.44-0.2c0.25,0,0.58,0.18,0.58,0.57c0,0,0,15.47,0,15.5
	c0,0.85-0.55,1.79-1.29,2.43l-0.05,0.05l-37.04,37.01c-0.05,0.04-0.4,0.49-1.02,0.49c-0.48,0-0.78-0.26-0.88-0.35L80.33,94.08
	C80.33,94.08,79.27,93.1,79.39,91.7z M114.31,136.84c0-0.62-0.45-0.97-0.49-1.02L76.8,98.78l-0.05-0.05
	c-0.64-0.75-1.58-1.29-2.42-1.29c-0.03,0-15.5,0-15.5,0c-0.39,0-0.57,0.33-0.57,0.58c0,0.13,0.05,0.29,0.2,0.44l22.96,22.9
	l-22.96,22.9c-0.21,0.21-0.2,0.43-0.17,0.57c0.06,0.26,0.31,0.43,0.52,0.44c0,0,15.27,0,15.3,0c0.85,0,1.66-0.36,2.24-0.99
	l0.01-0.01l13.99-13.99l6.55,6.55l-23.02,23.01c-0.18,0.17-0.2,0.38-0.17,0.54c0.05,0.24,0.28,0.42,0.5,0.45l15.24-0.03
	c1.41,0.13,2.39-0.94,2.39-0.94l22.12-22.15C114.05,137.61,114.31,137.32,114.31,136.84z M157.53,148.56l-22.15-22.12
	c-0.11-0.1-0.4-0.35-0.89-0.35c-0.62,0-0.97,0.45-1.02,0.49l-37.04,37.01l-0.05,0.05c-0.75,0.64-1.29,1.58-1.29,2.43
	c0,0.03,0,15.49,0,15.49c0,0.39,0.33,0.57,0.58,0.57c0.13,0,0.29-0.05,0.44-0.2l22.9-22.96l22.9,22.96c0.21,0.21,0.43,0.2,0.57,0.17
	c0.26-0.06,0.43-0.31,0.44-0.52c0,0,0.01-15.27,0.01-15.3c0-0.85-0.36-1.66-0.99-2.24l-0.01-0.01l-13.99-13.99l6.55-6.55
	l23.01,23.02c0.17,0.18,0.38,0.2,0.54,0.17c0.24-0.05,0.42-0.28,0.44-0.5l-0.03-15.24C158.6,149.54,157.53,148.56,157.53,148.56z
	 M156.75,121.27l22.96-22.9c0.21-0.21,0.2-0.43,0.17-0.57c-0.06-0.26-0.31-0.43-0.52-0.44c0,0-15.27,0-15.3,0
	c-0.85,0-1.66,0.36-2.24,0.99l-0.01,0.01l-13.99,13.99l-6.55-6.55l23.02-23.01c0.18-0.17,0.2-0.38,0.17-0.54
	c-0.05-0.24-0.28-0.42-0.5-0.44l-15.24,0.03c-1.41-0.12-2.39,0.94-2.39,0.94l-22.12,22.14c-0.1,0.11-0.35,0.4-0.35,0.89
	c0,0.62,0.45,0.97,0.49,1.02l37.01,37.04l0.05,0.05c0.64,0.75,1.58,1.29,2.42,1.29c0.03,0,15.5,0,15.5,0c0.39,0,0.57-0.33,0.57-0.58
	c0-0.13-0.05-0.29-0.2-0.44L156.75,121.27z"/>
</svg>
