<?xml version="1.0" encoding="UTF-8"?>
<svg id="Capa_1" xmlns="http://www.w3.org/2000/svg" viewBox="0 0 512 512">
  <defs>
    <style>
      .cls-1 {
        fill: #fff;
      }
    </style>
  </defs>
  <path class="cls-1" d="M256,46.12c68.35,0,76.46.26,103.45,1.49,27.9,1.28,56.64,7.64,76.97,27.97,20.52,20.52,26.69,48.98,27.97,76.97,1.24,26.99,1.49,35.09,1.49,103.45s-.26,76.46-1.49,103.45c-1.26,27.75-7.77,56.77-27.97,76.97s-48.96,26.69-76.97,27.97c-26.99,1.24-35.09,1.49-103.45,1.49s-76.46-.26-103.45-1.49c-27.54-1.26-56.94-7.91-76.97-27.97-20.42-20.42-26.69-49.15-27.97-76.97-1.24-26.99-1.49-35.09-1.49-103.45s.26-76.46,1.49-103.45c1.26-27.65,7.83-56.83,27.97-76.97,20.48-20.48,49.05-26.69,76.97-27.97,26.99-1.24,35.09-1.49,103.45-1.49M256,0c-69.53,0-78.25.3-105.56,1.54-39.57,1.81-78.87,12.82-107.48,41.43C14.25,71.68,3.35,110.89,1.54,150.44c-1.24,27.31-1.54,36.03-1.54,105.56s.3,78.25,1.54,105.56c1.81,39.53,12.86,78.93,41.43,107.48,28.69,28.69,67.97,39.62,107.48,41.43,27.31,1.24,36.03,1.54,105.56,1.54s78.25-.3,105.56-1.54c39.55-1.81,78.89-12.84,107.48-41.43s39.62-67.93,41.43-107.48c1.24-27.31,1.54-36.03,1.54-105.56s-.3-78.25-1.54-105.56c-1.81-39.57-12.84-78.89-41.43-107.48C440.38,14.31,401,3.33,361.56,1.54c-27.31-1.24-36.03-1.54-105.56-1.54Z"/>
  <path class="cls-1" d="M256,124.54c-72.6,0-131.46,58.86-131.46,131.46s58.86,131.46,131.46,131.46,131.46-58.86,131.46-131.46-58.86-131.46-131.46-131.46ZM256,341.33c-47.13,0-85.33-38.21-85.33-85.33s38.21-85.33,85.33-85.33,85.33,38.21,85.33,85.33-38.21,85.33-85.33,85.33Z"/>
  <circle class="cls-1" cx="392.66" cy="119.34" r="30.72"/>
</svg>