<?xml version="1.0" encoding="UTF-8"?>
<svg id="Capa_1" xmlns="http://www.w3.org/2000/svg" viewBox="0 0 512 512">
  <defs>
    <style>
      .cls-1 {
        fill: #fff;
      }
    </style>
  </defs>
  <path class="cls-1" d="M501.29,131.97c-5.89-22.17-23.23-39.64-45.27-45.57-39.91-10.75-200.02-10.75-200.02-10.75,0,0-160.11,0-200.04,10.75-22.02,5.93-39.36,23.38-45.25,45.57C0,172.16,0,256,0,256c0,0,0,83.84,10.71,124.03,5.89,22.17,23.23,39.64,45.27,45.57,39.91,10.75,200.02,10.75,200.02,10.75,0,0,160.11,0,200.04-10.75,22.02-5.93,39.36-23.38,45.27-45.57,10.69-40.19,10.69-124.03,10.69-124.03,0,0,0-83.84-10.71-124.03ZM203.65,332.14v-152.28l133.8,76.14-133.8,76.14Z"/>
</svg>